<?xml version="1.0" encoding="UTF-8" standalone="no"?>
<!-- Created with Inkscape (http://www.inkscape.org/) -->

<svg
   xmlns:dc="http://purl.org/dc/elements/1.1/"
   xmlns:cc="http://creativecommons.org/ns#"
   xmlns:rdf="http://www.w3.org/1999/02/22-rdf-syntax-ns#"
   xmlns:svg="http://www.w3.org/2000/svg"
   xmlns="http://www.w3.org/2000/svg"
   xmlns:sodipodi="http://sodipodi.sourceforge.net/DTD/sodipodi-0.dtd"
   xmlns:inkscape="http://www.inkscape.org/namespaces/inkscape"
   width="132.75018mm"
   height="114.97771mm"
   viewBox="0 0 132.75018 114.97771"
   version="1.1"
   id="svg8"
   inkscape:version="0.92.4 (5da689c313, 2019-01-14)"
   sodipodi:docname="system-sketch.svg">
  <defs
     id="defs2" />
  <sodipodi:namedview
     id="base"
     pagecolor="#ffffff"
     bordercolor="#666666"
     borderopacity="1.0"
     inkscape:pageopacity="0.0"
     inkscape:pageshadow="2"
     inkscape:zoom="0.49497475"
     inkscape:cx="864.11926"
     inkscape:cy="265.59741"
     inkscape:document-units="mm"
     inkscape:current-layer="layer1"
     showgrid="false"
     fit-margin-top="0"
     fit-margin-left="0"
     fit-margin-right="0"
     fit-margin-bottom="0"
     inkscape:window-width="1888"
     inkscape:window-height="1025"
     inkscape:window-x="1934"
     inkscape:window-y="37"
     inkscape:window-maximized="0" />
  <metadata
     id="metadata5">
    <rdf:RDF>
      <cc:Work
         rdf:about="">
        <dc:format>image/svg+xml</dc:format>
        <dc:type
           rdf:resource="http://purl.org/dc/dcmitype/StillImage" />
        <dc:title></dc:title>
      </cc:Work>
    </rdf:RDF>
  </metadata>
  <g
     inkscape:label="Layer 1"
     inkscape:groupmode="layer"
     id="layer1"
     transform="translate(-31.411361,-88.528238)">
    <g
       id="g833"
       style="stroke-width:2;stroke-miterlimit:4;stroke-dasharray:none">
      <path
         transform="scale(-1,1)"
         sodipodi:open="true"
         d="m -98.527617,202.50595 a 64.633926,64.633926 0 0 1 -45.703093,-18.93084 64.633926,64.633926 0 0 1 -18.93083,-45.70309"
         sodipodi:end="3.1415927"
         sodipodi:start="1.5707963"
         sodipodi:ry="64.633926"
         sodipodi:rx="64.633926"
         sodipodi:cy="137.87202"
         sodipodi:cx="-98.527618"
         sodipodi:type="arc"
         id="path815"
         style="opacity:1;fill:#ffffff;fill-opacity:1;stroke:#000000;stroke-width:2;stroke-linecap:butt;stroke-linejoin:miter;stroke-miterlimit:4;stroke-dasharray:none;stroke-dashoffset:0;stroke-opacity:1;paint-order:normal" />
      <path
         transform="scale(-1,1)"
         sodipodi:open="true"
         d="m -98.527419,164.19787 a 26.326048,26.326048 0 0 1 -18.615331,-7.71072 26.326048,26.326048 0 0 1 -7.71072,-18.61533"
         sodipodi:end="3.1415927"
         sodipodi:start="1.5707963"
         sodipodi:ry="26.326048"
         sodipodi:rx="26.326048"
         sodipodi:cy="137.87183"
         sodipodi:cx="-98.52742"
         sodipodi:type="arc"
         id="path817"
         style="opacity:1;fill:#ffffff;fill-opacity:1;stroke:#000000;stroke-width:2;stroke-linecap:butt;stroke-linejoin:miter;stroke-miterlimit:4;stroke-dasharray:none;stroke-dashoffset:0;stroke-opacity:1;paint-order:normal" />
      <path
         sodipodi:nodetypes="cc"
         inkscape:connector-curvature="0"
         id="path819"
         d="M 124.86206,137.87202 V 91.679299"
         style="fill:none;fill-rule:evenodd;stroke:#000000;stroke-width:2;stroke-linecap:butt;stroke-linejoin:miter;stroke-miterlimit:4;stroke-dasharray:none;stroke-opacity:1" />
      <path
         sodipodi:nodetypes="cc"
         style="fill:none;fill-rule:evenodd;stroke:#000000;stroke-width:2;stroke-linecap:butt;stroke-linejoin:miter;stroke-miterlimit:4;stroke-dasharray:none;stroke-opacity:1"
         d="M 163.14842,137.87202 V 92.11378"
         id="path821"
         inkscape:connector-curvature="0" />
      <path
         style="fill:none;fill-rule:evenodd;stroke:#000000;stroke-width:2;stroke-linecap:butt;stroke-linejoin:miter;stroke-miterlimit:4;stroke-dasharray:none;stroke-opacity:1"
         d="M 98.527615,202.50595 H 33.01321"
         id="path823"
         inkscape:connector-curvature="0"
         sodipodi:nodetypes="cc" />
      <path
         inkscape:connector-curvature="0"
         id="path825"
         d="M 98.527615,164.21959 H 33.2587"
         style="fill:none;fill-rule:evenodd;stroke:#000000;stroke-width:2;stroke-linecap:butt;stroke-linejoin:miter;stroke-miterlimit:4;stroke-dasharray:none;stroke-opacity:1"
         sodipodi:nodetypes="cc" />
    </g>
    <g
       id="g861"
       transform="translate(8.6934524,-6.8035714)"
       style="stroke:#ff5555;stroke-width:0;stroke-miterlimit:4;stroke-dasharray:none">
      <path
         inkscape:connector-curvature="0"
         id="path843"
         d="m 22.717909,189.55765 c 0.942055,-3.58492 4.22489,-6.09051 7.359434,-7.72941 4.586458,-2.33709 9.762408,-0.003 12.831101,3.66891 3.392537,3.51567 5.505206,8.73956 10.388641,10.50033 3.88372,0.61924 8.616023,0.70241 11.260084,-2.76164 1.932904,-3.27042 5.012175,-4.33782 8.674681,-3.67823"
         style="fill:none;fill-rule:evenodd;stroke:#ff5555;stroke-width:0;stroke-linecap:butt;stroke-linejoin:miter;stroke-miterlimit:4;stroke-dasharray:none;stroke-opacity:1" />
      <path
         inkscape:connector-curvature="0"
         id="path845"
         d="m 68.420998,185.01407 c 2.835804,0.80053 5.31707,2.50985 8.140087,3.36202 1.834058,1.66188 5.184739,2.12256 6.52992,3.64867 -2.533987,1.17204 -5.338677,1.97935 -8.116727,2.44647 -2.665339,0.12837 -5.094972,1.03674 -7.622358,1.76821"
         style="fill:none;fill-rule:evenodd;stroke:#ff5555;stroke-width:0;stroke-linecap:butt;stroke-linejoin:miter;stroke-miterlimit:4;stroke-dasharray:none;stroke-opacity:1" />
    </g>
    <g
       id="g1075">
      <path
         inkscape:connector-curvature="0"
         id="path965"
         d="m 35.002135,193.86754 c 11.153111,-0.21205 22.290195,-0.99925 33.442223,-1.06354 11.688709,-1.99398 23.4583,-1.64028 35.169292,-0.19724 10.46407,1.39235 20.70571,-2.30049 28.26108,-9.58678 7.31019,-8.97239 15.71893,-18.09367 18.61122,-29.64926 3.74886,-14.45829 0.19568,-29.62848 4.76991,-43.9251 1.48509,-5.83328 1.51048,-11.783746 0.32102,-17.631643"
         style="fill:none;fill-rule:evenodd;stroke:#2a7fff;stroke-width:1;stroke-linecap:butt;stroke-linejoin:miter;stroke-opacity:1;stroke-miterlimit:4;stroke-dasharray:none" />
      <path
         inkscape:connector-curvature="0"
         id="path1001"
         d="m 150.07903,121.72147 c 0.39459,-0.25243 0.51033,-0.74375 0.77415,-1.10631 0.28802,-0.75012 0.74563,-1.44054 1.38936,-1.93149 0.31783,-0.27753 0.55944,-0.60854 0.85526,-0.90481 0.44551,-0.44448 0.45666,0.53877 0.53837,0.8141 0.0578,0.52458 0.17464,1.03053 0.28923,1.53516 0.27875,0.47651 0.6772,0.91998 0.73499,1.49443 0.0547,0.344 0.26006,0.67658 0.56327,0.83377"
         style="fill:none;fill-rule:evenodd;stroke:#2a7fff;stroke-width:1;stroke-linecap:butt;stroke-linejoin:miter;stroke-opacity:1;stroke-miterlimit:4;stroke-dasharray:none" />
      <path
         style="fill:none;fill-rule:evenodd;stroke:#2a7fff;stroke-width:1;stroke-linecap:butt;stroke-linejoin:miter;stroke-miterlimit:4;stroke-dasharray:none;stroke-opacity:1"
         d="m 77.658486,188.34134 c 0.25243,0.39459 0.74375,0.51033 1.10631,0.77415 0.75012,0.28802 1.44054,0.74563 1.93149,1.38936 0.27753,0.31783 0.60854,0.55944 0.90481,0.85526 0.44448,0.44551 -0.53877,0.45666 -0.8141,0.53837 -0.52458,0.0578 -1.03053,0.17464 -1.53516,0.28923 -0.47651,0.27875 -0.91998,0.6772 -1.49443,0.73499 -0.344,0.0547 -0.67658,0.26006 -0.83377,0.56327"
         id="path1028"
         inkscape:connector-curvature="0" />
    </g>
    <g
       id="g1080">
      <path
         inkscape:connector-curvature="0"
         id="path963"
         d="m 35.014494,197.94711 c 12.948255,-2.94523 26.308934,0.15583 39.43203,-0.48254 14.187848,-0.84712 28.845046,2.45314 42.677826,-1.49247 10.0126,-4.62871 21.62831,-8.77014 27.85174,-18.41657 8.10364,-11.95299 12.6675,-26.12127 13.93193,-40.4257 -2.00491,-10.24097 0.20157,-20.3077 0.4298,-30.55435 -0.33185,-5.53273 0.73383,-11.083593 0.5978,-16.540569"
         style="fill:none;fill-rule:evenodd;stroke:#ff5555;stroke-width:1;stroke-linecap:butt;stroke-linejoin:miter;stroke-opacity:1;stroke-miterlimit:4;stroke-dasharray:none" />
      <path
         inkscape:connector-curvature="0"
         id="path1003"
         d="m 156.76077,111.49841 c 0.3315,0.33633 0.51691,0.78503 0.69155,1.21419 0.0845,0.40141 0.34948,0.73448 0.45292,1.12969 0.18626,0.45441 0.38824,0.90356 0.61596,1.33776 0.0821,0.24778 0.0909,0.53516 0.26102,0.74398 0.29356,0.0772 0.38364,-0.37983 0.47344,-0.59262 0.10732,-0.34938 0.14146,-0.73053 0.35763,-1.03616 0.15971,-0.30224 0.30476,-0.63734 0.60001,-0.83369 0.28099,-0.34888 0.57641,-0.69763 0.96589,-0.92955 0.23552,-0.17777 0.4367,-0.41402 0.52564,-0.69941"
         style="fill:none;fill-rule:evenodd;stroke:#ff5555;stroke-width:1;stroke-linecap:butt;stroke-linejoin:miter;stroke-opacity:1;stroke-miterlimit:4;stroke-dasharray:none" />
      <path
         style="fill:none;fill-rule:evenodd;stroke:#ff5555;stroke-width:1;stroke-linecap:butt;stroke-linejoin:miter;stroke-miterlimit:4;stroke-dasharray:none;stroke-opacity:1"
         d="m 91.524357,195.34324 c -0.33633,0.3315 -0.78503,0.51691 -1.21419,0.69155 -0.40141,0.0845 -0.73448,0.34948 -1.12969,0.45292 -0.45441,0.18626 -0.90356,0.38824 -1.33776,0.61596 -0.24778,0.0821 -0.53516,0.0909 -0.74398,0.26102 -0.0772,0.29356 0.37983,0.38364 0.59262,0.47344 0.34938,0.10732 0.73053,0.14146 1.03616,0.35763 0.30224,0.15971 0.63734,0.30476 0.83369,0.60001 0.34888,0.28099 0.69763,0.57641 0.92955,0.96589 0.17777,0.23552 0.41402,0.4367 0.69941,0.52564"
         id="path1030"
         inkscape:connector-curvature="0" />
    </g>
    <g
       id="g1065">
      <path
         inkscape:connector-curvature="0"
         id="path981"
         d="m 132.51999,89.735109 c -1.49432,11.837681 -0.0728,23.803981 -0.3568,35.672421 1.14245,8.75502 1.83622,17.77217 -0.77928,26.34571 -1.04797,8.60154 -7.41544,15.08775 -14.80198,18.74595 -7.27555,1.93784 -14.94952,1.70553 -22.420371,2.43478 -17.205729,0.30025 -34.457829,0.83143 -51.643026,-0.15785 -3.177992,-0.39266 -6.39212,-0.75983 -9.595267,-0.45321"
         style="fill:none;fill-rule:evenodd;stroke:#2a7fff;stroke-width:1;stroke-linecap:butt;stroke-linejoin:miter;stroke-opacity:1;stroke-miterlimit:4;stroke-dasharray:none" />
      <path
         style="fill:none;fill-rule:evenodd;stroke:#2a7fff;stroke-width:1;stroke-linecap:butt;stroke-linejoin:miter;stroke-miterlimit:4;stroke-dasharray:none;stroke-opacity:1"
         d="m 129.26751,120.48363 c 0.39459,0.25243 0.51033,0.74375 0.77415,1.10631 0.28802,0.75012 0.74563,1.44054 1.38936,1.93149 0.31783,0.27753 0.55944,0.60854 0.85526,0.90481 0.44551,0.44448 0.45666,-0.53877 0.53837,-0.8141 0.0578,-0.52458 0.17464,-1.03053 0.28923,-1.53516 0.27875,-0.47651 0.6772,-0.91998 0.73499,-1.49443 0.0547,-0.344 0.26006,-0.67658 0.56327,-0.83377"
         id="path1032"
         inkscape:connector-curvature="0" />
      <path
         inkscape:connector-curvature="0"
         id="path1036"
         d="m 69.495152,176.44853 c -0.25243,-0.39459 -0.74375,-0.51033 -1.10631,-0.77415 -0.75012,-0.28802 -1.44054,-0.74563 -1.93149,-1.38936 -0.27753,-0.31783 -0.60854,-0.55944 -0.90481,-0.85526 -0.44448,-0.44551 0.53877,-0.45666 0.8141,-0.53837 0.52458,-0.0578 1.03053,-0.17464 1.53516,-0.28923 0.47651,-0.27875 0.91998,-0.6772 1.49443,-0.73499 0.344,-0.0547 0.67658,-0.26006 0.83377,-0.56327"
         style="fill:none;fill-rule:evenodd;stroke:#2a7fff;stroke-width:1;stroke-linecap:butt;stroke-linejoin:miter;stroke-miterlimit:4;stroke-dasharray:none;stroke-opacity:1" />
    </g>
    <g
       id="g1070">
      <path
         sodipodi:nodetypes="ccccccc"
         inkscape:connector-curvature="0"
         id="path975"
         d="m 33.112254,168.73214 c 16.141981,0.38009 32.298672,-0.0811 48.433455,0.56868 5.589081,-0.0517 11.178308,0.0336 16.767436,-0.002 5.783765,-2.60607 13.302905,-0.29412 18.099955,-5.22148 8.0754,-4.40196 10.01742,-14.1336 12.344,-22.24023 0.45153,-7.76861 -0.86647,-15.52117 -0.4378,-23.29144 1.75391,-10.54328 -0.95834,-20.693629 0.23194,-30.133758"
         style="fill:none;fill-rule:evenodd;stroke:#ff5555;stroke-width:1;stroke-linecap:butt;stroke-linejoin:miter;stroke-opacity:1;stroke-miterlimit:4;stroke-dasharray:none" />
      <path
         style="fill:none;fill-rule:evenodd;stroke:#ff5555;stroke-width:1;stroke-linecap:butt;stroke-linejoin:miter;stroke-miterlimit:4;stroke-dasharray:none;stroke-opacity:1"
         d="m 126.52268,116.00651 c 0.3315,-0.33633 0.51691,-0.78503 0.69155,-1.21419 0.0845,-0.40141 0.34948,-0.73448 0.45292,-1.12969 0.18626,-0.45441 0.38824,-0.90356 0.61596,-1.33776 0.0821,-0.24778 0.0909,-0.53516 0.26102,-0.74398 0.29356,-0.0772 0.38364,0.37983 0.47344,0.59262 0.10732,0.34938 0.14146,0.73053 0.35763,1.03616 0.15971,0.30224 0.30476,0.63734 0.60001,0.83369 0.28099,0.34888 0.57641,0.69763 0.96589,0.92955 0.23552,0.17777 0.4367,0.41402 0.52564,0.69941"
         id="path1034"
         inkscape:connector-curvature="0" />
      <path
         inkscape:connector-curvature="0"
         id="path1038"
         d="m 79.751701,171.05164 c 0.33633,-0.3315 0.78503,-0.51691 1.21419,-0.69155 0.40141,-0.0845 0.73448,-0.34948 1.12969,-0.45292 0.45441,-0.18626 0.90356,-0.38824 1.33776,-0.61596 0.24778,-0.0821 0.53516,-0.0909 0.74398,-0.26102 0.0772,-0.29356 -0.37983,-0.38364 -0.59262,-0.47344 -0.34938,-0.10732 -0.73053,-0.14146 -1.03616,-0.35763 -0.30224,-0.15971 -0.63734,-0.30476 -0.83369,-0.60001 -0.34888,-0.28099 -0.69763,-0.57641 -0.92955,-0.96589 -0.17777,-0.23552 -0.41402,-0.4367 -0.69941,-0.52564"
         style="fill:none;fill-rule:evenodd;stroke:#ff5555;stroke-width:1;stroke-linecap:butt;stroke-linejoin:miter;stroke-miterlimit:4;stroke-dasharray:none;stroke-opacity:1" />
    </g>
    <text
       xml:space="preserve"
       style="font-style:normal;font-variant:normal;font-weight:normal;font-stretch:normal;font-size:7.05555534px;line-height:6.61458302px;font-family:sans-serif;-inkscape-font-specification:sans-serif;letter-spacing:0px;word-spacing:0px;fill:#000000;fill-opacity:1;stroke:none;stroke-width:0.26458332px;stroke-linecap:butt;stroke-linejoin:miter;stroke-opacity:1"
       x="81.123489"
       y="182.92619"
       id="text1042"><tspan
         sodipodi:role="line"
         id="tspan1040"
         x="81.123489"
         y="182.92619"
         style="stroke-width:0.26458332px">QSH Phase</tspan></text>
    <g
       id="g1060"
       transform="translate(15.768902,37.068249)">
      <path
         style="fill:none;fill-rule:evenodd;stroke:#2a7fff;stroke-width:1;stroke-linecap:butt;stroke-linejoin:miter;stroke-miterlimit:4;stroke-dasharray:none;stroke-opacity:1"
         d="m 39.162177,115.30699 c 0.445449,-0.0891 0.890899,-0.17818 1.336348,-0.26727 0.267269,0 0.537225,0.0378 0.801808,0 0.363635,-0.0519 0.705444,-0.21532 1.069078,-0.26726 0.440973,-0.063 0.890899,0 1.336348,0 1.247258,0 2.494516,0 3.741774,0 3.474503,0 6.949007,0 10.42351,0"
         id="path1048"
         inkscape:connector-curvature="0" />
      <path
         inkscape:connector-curvature="0"
         id="path1050"
         d="m 45.387837,118.03493 c 0.25243,-0.39459 0.74375,-0.51033 1.10631,-0.77415 0.75012,-0.28802 1.44054,-0.74563 1.93149,-1.38936 0.27753,-0.31783 0.60854,-0.55944 0.90481,-0.85526 0.44448,-0.44551 -0.53877,-0.45666 -0.8141,-0.53837 -0.52458,-0.0578 -1.03053,-0.17464 -1.53516,-0.28923 -0.47651,-0.27875 -0.91998,-0.6772 -1.49443,-0.73499 -0.344,-0.0547 -0.67658,-0.26006 -0.83377,-0.56327"
         style="fill:none;fill-rule:evenodd;stroke:#2a7fff;stroke-width:1;stroke-linecap:butt;stroke-linejoin:miter;stroke-miterlimit:4;stroke-dasharray:none;stroke-opacity:1" />
    </g>
    <g
       id="g1056"
       transform="translate(15.234363,35.279578)">
      <path
         inkscape:connector-curvature="0"
         id="path1044"
         d="m 39.162177,105.95256 c 0.445449,-0.0891 0.890899,-0.17818 1.336348,-0.26727 0.267269,0 0.537225,0.0378 0.801808,0 0.363635,-0.0519 0.705444,-0.21532 1.069078,-0.26726 0.440973,-0.063 0.890899,0 1.336348,0 1.247258,0 2.494516,0 3.741774,0 3.474503,0 6.949007,0 10.42351,0"
         style="fill:none;fill-rule:evenodd;stroke:#ff5555;stroke-width:1;stroke-linecap:butt;stroke-linejoin:miter;stroke-miterlimit:4;stroke-dasharray:none;stroke-opacity:1" />
      <path
         inkscape:connector-curvature="0"
         id="path1052"
         d="m 45.585057,103.08014 c 0.33633,0.3315 0.78503,0.51691 1.21419,0.69155 0.40141,0.0845 0.73448,0.34948 1.12969,0.45292 0.45441,0.18626 0.90356,0.38824 1.33776,0.61596 0.24778,0.0821 0.53516,0.0909 0.74398,0.26102 0.0772,0.29356 -0.37983,0.38364 -0.59262,0.47344 -0.34938,0.10732 -0.73053,0.14146 -1.03616,0.35763 -0.30224,0.15971 -0.63734,0.30476 -0.83369,0.60001 -0.34888,0.28099 -0.69763,0.57641 -0.92955,0.96589 -0.17777,0.23552 -0.41402,0.4367 -0.69941,0.52564"
         style="fill:none;fill-rule:evenodd;stroke:#ff5555;stroke-width:1;stroke-linecap:butt;stroke-linejoin:miter;stroke-miterlimit:4;stroke-dasharray:none;stroke-opacity:1" />
    </g>
    <text
       xml:space="preserve"
       style="font-style:normal;font-variant:normal;font-weight:normal;font-stretch:normal;font-size:7.05555534px;line-height:6.61458302px;font-family:sans-serif;-inkscape-font-specification:sans-serif;letter-spacing:0px;word-spacing:0px;fill:#000000;fill-opacity:1;stroke:none;stroke-width:0.26458332px;stroke-linecap:butt;stroke-linejoin:miter;stroke-opacity:1"
       x="76.114433"
       y="142.57158"
       id="text1084"><tspan
         sodipodi:role="line"
         id="tspan1082"
         x="76.114433"
         y="142.57158"
         style="stroke-width:0.26458332px">spin ↑</tspan></text>
    <text
       id="text1088"
       y="154.28885"
       x="76.114433"
       style="font-style:normal;font-variant:normal;font-weight:normal;font-stretch:normal;font-size:7.05555534px;line-height:6.61458302px;font-family:sans-serif;-inkscape-font-specification:sans-serif;letter-spacing:0px;word-spacing:0px;fill:#000000;fill-opacity:1;stroke:none;stroke-width:0.26458332px;stroke-linecap:butt;stroke-linejoin:miter;stroke-opacity:1"
       xml:space="preserve"><tspan
         style="stroke-width:0.26458332px"
         y="154.28885"
         x="76.114433"
         id="tspan1086"
         sodipodi:role="line">spin ↓</tspan></text>
  </g>
</svg>
